<svg width="40" height="40" viewBox="0 0 40 40" fill="none" xmlns="http://www.w3.org/2000/svg">
<g clip-path="url(#clip0_21_2)">
<path d="M0.0443761 27.1313C0.773126 33.5975 10.2781 36.0019 21.2712 32.4888C32.265 28.9819 40.5869 20.8881 39.8581 14.4238C39.1294 7.95876 29.6262 5.56251 18.6325 9.06564C7.63688 12.5775 -0.684374 20.665 0.0443761 27.1313Z" fill="#FBB041"/>
<path d="M25.2981 24.2781C18.6375 26.6981 6.92127 33.1369 0.0175171 26.7481C0.0250171 26.875 0.0306421 27.0019 0.0443921 27.1288C0.773142 33.5963 10.2781 36 21.2713 32.4869C29.7219 29.7913 36.5881 24.3931 38.9856 19.0988C34.3031 21.2219 29.5419 22.7344 25.2981 24.2781ZM16.7363 21.6775C16.4825 21.5463 7.98002 17.1381 6.67377 16.4569C6.14002 16.1825 6.13252 15.0375 6.57002 14.5831C10.5619 10.3888 15.5544 12.9775 17.4525 20.2269C17.6594 21.0188 17.2706 21.955 16.7369 21.6806M24.9756 15.9119C24.7588 15.8013 17.4631 12.0188 16.345 11.44C15.8894 11.2025 15.8831 10.2175 16.2544 9.82752C19.6781 6.23314 23.9619 8.44877 25.5875 14.6638C25.7688 15.3413 25.4331 16.1513 24.9756 15.9119ZM32.925 13.2788C32.7819 13.1556 28.0069 8.95064 27.275 8.30689C26.9763 8.04377 27.0481 7.36252 27.3388 7.17377C29.9863 5.41814 32.7894 7.88314 33.4456 12.5494C33.515 13.0569 33.2219 13.5419 32.9244 13.2788" fill="#E8A043"/>
<path d="M16.6556 20.9713C16.4031 20.835 7.89938 16.4294 6.59313 15.7531C6.05938 15.4775 6.05313 14.3331 6.48938 13.8719C10.4788 9.68251 15.4738 12.2681 17.3706 19.5156C17.5788 20.305 17.1875 21.2456 16.6563 20.9706M24.815 14.4875C24.5981 14.3769 17.3025 10.5931 16.185 10.0144C15.7269 9.77813 15.7206 8.79688 16.0963 8.40313C19.5175 4.80938 23.8006 7.02938 25.4288 13.2444C25.6094 13.92 25.2738 14.725 24.815 14.4875M32.8438 12.575C32.7006 12.4481 27.9288 8.24688 27.1938 7.60188C26.8963 7.33876 26.9688 6.65813 27.2556 6.46563C29.9069 4.71063 32.7113 7.17501 33.3638 11.8413C33.4381 12.3538 33.1413 12.8388 32.8444 12.575" fill="#F0CA94"/>
</g>
<defs>
<clipPath id="clip0_21_2">
<rect width="40" height="40" fill="white"/>
</clipPath>
</defs>
</svg>
