<svg width="30" height="30" viewBox="0 0 30 30" fill="none" xmlns="http://www.w3.org/2000/svg">
<path d="M1.66667 30C1.19444 30 0.798889 29.84 0.48 29.52C0.16 29.2011 0 28.8056 0 28.3333C0 27.8611 0.16 27.4656 0.48 27.1467C0.798889 26.8267 1.19444 26.6667 1.66667 26.6667H28.3333C28.8056 26.6667 29.2011 26.8267 29.52 27.1467C29.84 27.4656 30 27.8611 30 28.3333C30 28.8056 29.84 29.2011 29.52 29.52C29.2011 29.84 28.8056 30 28.3333 30H1.66667ZM11.6667 23.3333C11.1944 23.3333 10.7989 23.1733 10.48 22.8533C10.16 22.5344 10 22.1389 10 21.6667C10 21.1944 10.16 20.7983 10.48 20.4783C10.7989 20.1594 11.1944 20 11.6667 20H28.3333C28.8056 20 29.2011 20.1594 29.52 20.4783C29.84 20.7983 30 21.1944 30 21.6667C30 22.1389 29.84 22.5344 29.52 22.8533C29.2011 23.1733 28.8056 23.3333 28.3333 23.3333H11.6667ZM1.66667 16.6667C1.19444 16.6667 0.798889 16.5067 0.48 16.1867C0.16 15.8678 0 15.4722 0 15C0 14.5278 0.16 14.1317 0.48 13.8117C0.798889 13.4928 1.19444 13.3333 1.66667 13.3333H28.3333C28.8056 13.3333 29.2011 13.4928 29.52 13.8117C29.84 14.1317 30 14.5278 30 15C30 15.4722 29.84 15.8678 29.52 16.1867C29.2011 16.5067 28.8056 16.6667 28.3333 16.6667H1.66667ZM11.6667 10C11.1944 10 10.7989 9.84 10.48 9.52C10.16 9.20111 10 8.80556 10 8.33333C10 7.86111 10.16 7.465 10.48 7.145C10.7989 6.82611 11.1944 6.66667 11.6667 6.66667H28.3333C28.8056 6.66667 29.2011 6.82611 29.52 7.145C29.84 7.465 30 7.86111 30 8.33333C30 8.80556 29.84 9.20111 29.52 9.52C29.2011 9.84 28.8056 10 28.3333 10H11.6667ZM1.66667 3.33333C1.19444 3.33333 0.798889 3.17333 0.48 2.85333C0.16 2.53444 0 2.13889 0 1.66667C0 1.19444 0.16 0.798333 0.48 0.478333C0.798889 0.159444 1.19444 0 1.66667 0H28.3333C28.8056 0 29.2011 0.159444 29.52 0.478333C29.84 0.798333 30 1.19444 30 1.66667C30 2.13889 29.84 2.53444 29.52 2.85333C29.2011 3.17333 28.8056 3.33333 28.3333 3.33333H1.66667Z" fill="white"/>
</svg>
