<svg width="30" height="30" viewBox="0 0 30 30" fill="none" xmlns="http://www.w3.org/2000/svg">
<path d="M11.25 0.521016C11.433 0.743415 11.5452 1.01559 11.5719 1.30237C11.5986 1.58915 11.5388 1.87737 11.4 2.12977C10.316 4.12003 9.74988 6.35094 9.75375 8.61727C9.75375 16.1566 15.9 22.2616 23.475 22.2616C24.4631 22.2616 25.425 22.1585 26.3494 21.9616C26.6327 21.9003 26.9279 21.9237 27.198 22.0291C27.4681 22.1345 27.7012 22.3171 27.8681 22.5541C28.0444 22.8006 28.1342 23.0984 28.1237 23.4012C28.1132 23.704 28.0029 23.9949 27.81 24.2285C26.3394 26.035 24.4842 27.4904 22.3797 28.4889C20.2752 29.4873 17.9743 30.0035 15.645 29.9998C7.00125 29.9998 0 23.036 0 14.456C0 7.99852 3.96375 2.45977 9.6075 0.112266C9.88863 -0.00654904 10.2007 -0.0309353 10.4969 0.0427706C10.7931 0.116477 11.0573 0.284295 11.25 0.521016V0.521016ZM9.10875 2.45789C6.93863 3.62195 5.12444 5.35222 3.859 7.46482C2.59355 9.57742 1.92413 11.9934 1.92187 14.456C1.92187 21.9935 8.07 28.0985 15.645 28.0985C17.459 28.1017 19.2555 27.745 20.9307 27.0492C22.6059 26.3533 24.1265 25.3322 25.4044 24.0448C24.7725 24.1235 24.1294 24.1629 23.475 24.1629C14.8312 24.1629 7.83187 17.1991 7.83187 8.61914C7.83187 6.43102 8.28562 4.34789 9.10875 2.45789V2.45789Z" fill="white"/>
</svg>
