<svg width="30" height="29" viewBox="0 0 30 29" fill="none" xmlns="http://www.w3.org/2000/svg">
<path d="M29.0304 10.1273L20.037 8.81519L16.0167 0.632971C15.9069 0.408946 15.7262 0.227593 15.5031 0.117359C14.9434 -0.160004 14.2633 0.071132 13.9835 0.632971L9.96319 8.81519L0.969774 10.1273C0.721827 10.1629 0.495132 10.2802 0.321568 10.458C0.11174 10.6745 -0.00388537 10.9658 9.96959e-05 11.2679C0.00408476 11.5699 0.127354 11.858 0.342821 12.0689L6.84968 18.4376L5.3124 27.4305C5.27635 27.6397 5.29941 27.8549 5.37896 28.0516C5.45852 28.2483 5.59138 28.4187 5.76249 28.5435C5.9336 28.6682 6.13611 28.7424 6.34705 28.7575C6.55799 28.7726 6.76893 28.728 6.95594 28.6289L15.0001 24.3831L23.0442 28.6289C23.2638 28.7462 23.5188 28.7853 23.7633 28.7427C24.3796 28.636 24.794 28.0493 24.6877 27.4305L23.1505 18.4376L29.6573 12.0689C29.8344 11.8946 29.9513 11.6671 29.9867 11.4181C30.0824 10.7958 29.6502 10.2198 29.0304 10.1273V10.1273Z" fill="white"/>
</svg>
